# xmcd
#
# Track frame offsets:
#	150
#	19074
#	39574
#	57751
#	73822
#	93508
#	107178
#	125208
#	141831
#	159125
#	176169
#
# Disc length: 2559 seconds
#
# Revision: 1
# Processed by: cddbd v1.5.1PL0 Copyright (c) Steve Scherf et al.
# Submitted via: audiograbber 1.83.01
#
DISCID=9b09fd0b
DTITLE=Κώστας Στρατηγόπουλος - ΣΗΜΑΔΙΑ ΤΩΝ ΚΑΙΡΩΝ
DYEAR=1998
DGENRE=
TTITLE0=Όνειρο στερνό
TTITLE1=Σε ζητάω
TTITLE2=Χθες
TTITLE3=Κατερίνα
TTITLE4=Στα 22
TTITLE5=Αύριο αύριο
TTITLE6=Ένα σημάδι
TTITLE7=Ω δέσποινα μου
TTITLE8=Γλυκό κρασί
TTITLE9=Μάτια μου
TTITLE10=Η ξένη
EXTD=
EXTT0=
EXTT1=
EXTT2=
EXTT3=
EXTT4=
EXTT5=
EXTT6=
EXTT7=
EXTT8=
EXTT9=
EXTT10=
PLAYORDER=
